<?xml version="1.0" standalone="no"?>
<!DOCTYPE svg PUBLIC "-//W3C//DTD SVG 20010904//EN"
 "http://www.w3.org/TR/2001/REC-SVG-20010904/DTD/svg10.dtd">
<svg version="1.0" xmlns="http://www.w3.org/2000/svg"
 width="225.000000pt" height="225.000000pt" viewBox="0 0 225.000000 225.000000"
 preserveAspectRatio="xMidYMid meet">
<metadata>
Created by potrace 1.10, written by Peter Selinger 2001-2011
</metadata>
<g transform="translate(0.000000,225.000000) scale(0.100000,-0.100000)"
fill="#000000" stroke="none">
<path d="M936 2124 c-611 -121 -972 -743 -772 -1330 80 -238 263 -451 484
-567 391 -206 871 -137 1184 169 202 197 308 449 308 729 0 494 -344 907 -833
1000 -96 18 -277 18 -371 -1z m284 -54 c230 -26 421 -119 581 -280 314 -318
361 -817 113 -1193 -121 -182 -326 -329 -540 -387 -102 -28 -307 -38 -408 -20
-554 98 -903 647 -755 1189 94 347 391 619 744 680 125 22 157 23 265 11z"/>
<path d="M1030 1951 c-24 -4 -36 -12 -38 -25 -6 -31 20 -42 84 -36 46 4 60 9
62 23 8 41 -25 53 -108 38z"/>
<path d="M755 1877 c-166 -80 -299 -212 -377 -372 -43 -88 -46 -128 -11 -133
18 -3 27 9 57 73 88 189 221 317 413 394 57 24 68 32 68 52 0 40 -47 35 -150
-14z"/>
<path d="M1512 1713 c-132 -65 -94 -264 53 -281 83 -9 85 2 16 72 l-63 63 75
64 c42 35 76 67 76 71 1 10 -59 28 -93 28 -17 0 -46 -8 -64 -17z m23 -85 c-50
-56 -53 -67 -28 -105 14 -21 14 -25 3 -21 -8 2 -22 23 -30 46 -13 37 -12 45 3
77 16 34 71 70 90 58 4 -2 -13 -27 -38 -55z"/>
<path d="M1623 1622 l-62 -57 53 -59 53 -59 28 37 c35 47 44 110 20 160 -10
20 -20 36 -24 36 -3 -1 -34 -27 -68 -58z m82 -31 c6 -21 -12 -77 -23 -67 -13
13 -9 86 4 86 7 0 15 -8 19 -19z"/>
<path d="M1320 1473 c-73 -25 -151 -85 -258 -199 l-101 -106 42 -43 42 -42
197 196 c133 131 193 198 185 203 -18 12 -57 9 -107 -9z m10 -50 c0 -15 -266
-273 -282 -273 -38 0 -16 41 70 128 91 93 212 176 212 145z"/>
<path d="M1266 1261 l-198 -198 26 -26 25 -26 162 167 c161 166 210 234 192
267 -7 11 -55 -32 -207 -184z"/>
<path d="M1459 1331 c-2 -5 -75 -84 -161 -174 -144 -150 -155 -165 -141 -180
15 -15 20 -13 56 15 67 53 194 207 227 275 18 35 30 67 27 69 -3 3 -7 1 -8 -5z"/>
<path d="M897 1088 c-25 -29 -45 -53 -44 -54 3 -2 161 30 166 33 6 4 -61 73
-70 73 -4 0 -28 -24 -52 -52z"/>
<path d="M1014 1019 l-29 -31 50 7 c28 4 51 8 52 10 2 1 -7 11 -20 23 l-23 22
-30 -31z"/>
<path d="M1028 966 l-68 -11 -150 -150 -150 -150 62 -62 c34 -34 64 -61 66
-59 2 2 -4 28 -12 57 -9 29 -16 56 -16 59 0 4 33 26 73 50 69 41 213 146 287
208 35 30 35 30 16 51 -11 12 -24 20 -30 20 -6 -1 -41 -7 -78 -13z m32 -46 c0
-19 -234 -189 -245 -178 -3 3 30 42 72 87 57 61 87 85 113 91 49 11 60 11 60
0z"/>
<path d="M1797 933 c-16 -16 -5 -44 21 -54 56 -22 89 -23 100 -2 6 10 7 25 3
31 -14 22 -108 41 -124 25z"/>
<path d="M1732 768 c-20 -20 -13 -37 27 -64 46 -30 85 -29 89 3 2 16 -7 28
-41 47 -49 29 -58 31 -75 14z"/>
<path d="M1622 628 c-19 -19 -15 -31 27 -72 70 -68 113 -25 45 45 -41 42 -53
46 -72 27z"/>
<path d="M597 582 l-46 -47 101 -2 c56 -1 97 2 92 6 -5 4 -30 26 -55 49 l-45
41 -47 -47z"/>
<path d="M1479 514 c-12 -14 -10 -23 12 -63 29 -51 61 -65 78 -33 8 15 4 29
-19 66 -31 49 -49 56 -71 30z"/>
<path d="M1312 444 c-11 -19 11 -104 30 -115 7 -4 21 -3 31 3 21 11 20 44 -2
101 -12 31 -45 37 -59 11z"/>
</g>
</svg>
